<svg width="196" height="48" viewBox="0 0 196 48" fill="none" xmlns="http://www.w3.org/2000/svg">
<path d="M66.1796 18.8594H62.5233V29H61.0311V18.8594H57.3827V17.625H66.1796V18.8594ZM71.1327 21.8438C70.9139 21.8073 70.677 21.7891 70.4218 21.7891C69.4738 21.7891 68.8306 22.1927 68.4921 23V29H67.0468V20.5469H68.453L68.4764 21.5234C68.9504 20.7682 69.6223 20.3906 70.4921 20.3906C70.7733 20.3906 70.9869 20.4271 71.1327 20.5V21.8438ZM77.3749 29C77.2915 28.8333 77.2238 28.5365 77.1718 28.1094C76.4999 28.8073 75.6978 29.1562 74.7655 29.1562C73.9322 29.1562 73.2473 28.9219 72.7108 28.4531C72.1796 27.9792 71.9139 27.3802 71.9139 26.6562C71.9139 25.776 72.2473 25.0938 72.9139 24.6094C73.5858 24.1198 74.5285 23.875 75.7421 23.875H77.1483V23.2109C77.1483 22.7057 76.9973 22.3047 76.6952 22.0078C76.3931 21.7057 75.9478 21.5547 75.3593 21.5547C74.8436 21.5547 74.4113 21.6849 74.0624 21.9453C73.7134 22.2057 73.5389 22.5208 73.5389 22.8906H72.0858C72.0858 22.4688 72.2343 22.0625 72.5311 21.6719C72.8332 21.276 73.2395 20.9635 73.7499 20.7344C74.2655 20.5052 74.8306 20.3906 75.4452 20.3906C76.4191 20.3906 77.1822 20.6354 77.7343 21.125C78.2863 21.6094 78.5728 22.2786 78.5936 23.1328V27.0234C78.5936 27.7995 78.6926 28.4167 78.8905 28.875V29H77.3749ZM74.9764 27.8984C75.4296 27.8984 75.8593 27.7812 76.2655 27.5469C76.6718 27.3125 76.966 27.0078 77.1483 26.6328V24.8984H76.0155C74.2447 24.8984 73.3593 25.4167 73.3593 26.4531C73.3593 26.9062 73.5103 27.2604 73.8124 27.5156C74.1145 27.7708 74.5025 27.8984 74.9764 27.8984ZM82.2264 20.5469L82.2733 21.6094C82.9191 20.7969 83.7629 20.3906 84.8046 20.3906C86.591 20.3906 87.4921 21.3984 87.5077 23.4141V29H86.0624V23.4062C86.0572 22.7969 85.9165 22.3464 85.6405 22.0547C85.3697 21.763 84.9452 21.6172 84.3671 21.6172C83.8983 21.6172 83.4869 21.7422 83.1327 21.9922C82.7785 22.2422 82.5025 22.5703 82.3046 22.9766V29H80.8593V20.5469H82.2264ZM94.6093 26.7578C94.6093 26.3672 94.4608 26.0651 94.1639 25.8516C93.8723 25.6328 93.3593 25.4453 92.6249 25.2891C91.8957 25.1328 91.315 24.9453 90.8827 24.7266C90.4556 24.5078 90.1379 24.2474 89.9296 23.9453C89.7264 23.6432 89.6249 23.2839 89.6249 22.8672C89.6249 22.1745 89.9165 21.5885 90.4999 21.1094C91.0884 20.6302 91.8384 20.3906 92.7499 20.3906C93.7082 20.3906 94.4843 20.638 95.078 21.1328C95.677 21.6276 95.9764 22.2604 95.9764 23.0312H94.5233C94.5233 22.6354 94.354 22.2943 94.0155 22.0078C93.6822 21.7214 93.2603 21.5781 92.7499 21.5781C92.2238 21.5781 91.8124 21.6927 91.5155 21.9219C91.2186 22.151 91.0702 22.4505 91.0702 22.8203C91.0702 23.1693 91.2082 23.4323 91.4843 23.6094C91.7603 23.7865 92.2577 23.9557 92.9764 24.1172C93.7004 24.2786 94.2863 24.4714 94.7343 24.6953C95.1822 24.9193 95.5129 25.1901 95.7264 25.5078C95.9452 25.8203 96.0546 26.2031 96.0546 26.6562C96.0546 27.4115 95.7525 28.0182 95.1483 28.4766C94.5441 28.9297 93.7603 29.1562 92.7968 29.1562C92.1197 29.1562 91.5207 29.0365 90.9999 28.7969C90.479 28.5573 90.0702 28.224 89.7733 27.7969C89.4816 27.3646 89.3358 26.8984 89.3358 26.3984H90.7811C90.8072 26.8828 90.9999 27.2682 91.3593 27.5547C91.7238 27.8359 92.203 27.9766 92.7968 27.9766C93.3436 27.9766 93.7811 27.8672 94.1093 27.6484C94.4426 27.4245 94.6093 27.1276 94.6093 26.7578ZM98.6483 29V21.6641H97.3124V20.5469H98.6483V19.6797C98.6483 18.7734 98.8905 18.0729 99.3749 17.5781C99.8593 17.0833 100.544 16.8359 101.43 16.8359C101.763 16.8359 102.094 16.8802 102.422 16.9688L102.344 18.1406C102.099 18.0938 101.838 18.0703 101.562 18.0703C101.094 18.0703 100.732 18.2083 100.476 18.4844C100.221 18.7552 100.094 19.1458 100.094 19.6562V20.5469H101.898V21.6641H100.094V29H98.6483ZM103.117 24.6953C103.117 23.8672 103.279 23.1224 103.601 22.4609C103.93 21.7995 104.383 21.2891 104.961 20.9297C105.544 20.5703 106.208 20.3906 106.953 20.3906C108.104 20.3906 109.034 20.7891 109.742 21.5859C110.456 22.3828 110.812 23.4427 110.812 24.7656V24.8672C110.812 25.6901 110.654 26.4297 110.336 27.0859C110.023 27.737 109.573 28.2448 108.984 28.6094C108.401 28.974 107.729 29.1562 106.969 29.1562C105.823 29.1562 104.893 28.7578 104.18 27.9609C103.471 27.1641 103.117 26.1094 103.117 24.7969V24.6953ZM104.57 24.8672C104.57 25.8047 104.786 26.5573 105.219 27.125C105.656 27.6927 106.239 27.9766 106.969 27.9766C107.703 27.9766 108.286 27.6901 108.719 27.1172C109.151 26.5391 109.367 25.7318 109.367 24.6953C109.367 23.7682 109.146 23.0182 108.703 22.4453C108.266 21.8672 107.682 21.5781 106.953 21.5781C106.239 21.5781 105.664 21.862 105.226 22.4297C104.789 22.9974 104.57 23.8099 104.57 24.8672ZM116.711 21.8438C116.492 21.8073 116.255 21.7891 116 21.7891C115.052 21.7891 114.409 22.1927 114.07 23V29H112.625V20.5469H114.031L114.055 21.5234C114.529 20.7682 115.2 20.3906 116.07 20.3906C116.351 20.3906 116.565 20.4271 116.711 20.5V21.8438ZM119.406 20.5469L119.445 21.4844C120.065 20.7552 120.901 20.3906 121.953 20.3906C123.135 20.3906 123.94 20.8438 124.367 21.75C124.648 21.3438 125.013 21.0156 125.461 20.7656C125.914 20.5156 126.448 20.3906 127.062 20.3906C128.917 20.3906 129.859 21.3724 129.891 23.3359V29H128.445V23.4219C128.445 22.8177 128.307 22.3672 128.031 22.0703C127.755 21.7682 127.292 21.6172 126.641 21.6172C126.104 21.6172 125.659 21.7786 125.305 22.1016C124.95 22.4193 124.745 22.849 124.687 23.3906V29H123.234V23.4609C123.234 22.2318 122.633 21.6172 121.43 21.6172C120.482 21.6172 119.833 22.0208 119.484 22.8281V29H118.039V20.5469H119.406Z" fill="black" fill-opacity="0.541327"/>
<path d="M2 20.5625V19.9375C2 19.4197 2.41973 19 2.9375 19H17V17.125C17 16.2903 18.0117 15.8733 18.6004 16.4621L21.7254 19.5871C22.0915 19.9532 22.0915 20.5468 21.7254 20.9129L18.6004 24.0379C18.0139 24.6243 17 24.2131 17 23.375V21.5H2.9375C2.41973 21.5 2 21.0803 2 20.5625ZM21.0625 26.5H7V24.625C7 23.7924 5.98977 23.3719 5.39957 23.9621L2.27457 27.0871C1.90848 27.4532 1.90848 28.0468 2.27457 28.4129L5.39957 31.5379C5.9866 32.1249 7 31.7124 7 30.875V29H21.0625C21.5803 29 22 28.5803 22 28.0625V27.4375C22 26.9197 21.5803 26.5 21.0625 26.5Z" fill="black" fill-opacity="0.5413"/>
</svg>
